<?xml version="1.0" encoding="UTF-8"?>
<svg id="icon" xmlns="http://www.w3.org/2000/svg" viewBox="0 0 88.68 79.93">
  <defs>
    <style>
      .cls-1 {
        fill: none;
        fill-rule: evenodd;
        stroke-width: 0px;
      }
    </style>
  </defs>
  <path class="cls-1" d="M80.31,9.84c1.92-.11,2.93.03,3.6,1.2,1.7,2.77.54,11.01.48,14.88.88.08,1.76.16,2.64.24l.96.48c.79,4.02,1.22,14.18-.48,17.28-1.04.08-2.08.16-3.12.24-.08,4.96-.16,9.92-.24,14.88l-1.2.96c-13.6.08-27.2.16-40.8.24.06,17.89-21.77,25.38-35.04,14.88-13.67-10.82-6.29-35.28,10.8-36.96-.05-8.62-1.39-19.91.48-27.6,3.96-1.75,9.23-1.62,13.92-2.64,10.16-1.76,20.32-3.52,30.48-5.28,3.19-.7,13.44-3.47,16.32-2.4l.96.48c.08,3.04.16,6.08.24,9.12Z"/>
  <path class="cls-1" d="M75.99,9.84v-5.28h-.24c-9.84,1.76-19.68,3.52-29.52,5.28h29.76Z"/>
  <path class="cls-1" d="M22.23,14.16v23.76c11.85.38,17.14,8.29,19.92,18h37.92v-11.76c-8.98.18-28.23,2.69-30-4.56-1.24-5.07.23-11.39,2.88-12.96,3.68-2.18,21.27-.83,27.12-.72v-11.76H22.23Z"/>
  <path class="cls-1" d="M84.15,39.84v-9.6c-5.96-.06-26.01-1.17-29.52.72-.58,2.74-.44,7.13.72,8.88h28.8Z"/>
  <path class="cls-1" d="M58.23,31.92c2.89-.11,4.13,1.01,4.08,3.84-.83,1.83-2.03,2.74-4.56,2.16-.48-.56-.96-1.12-1.44-1.68v-2.64c.64-.56,1.28-1.12,1.92-1.68Z"/>
  <path class="cls-1" d="M18.87,42.24c-7,2.95-12.07,4.79-14.16,12.48-3.04,11.19,7.07,23.24,18.72,21.12,20.4-3.72,19.33-34.09-4.56-33.6Z"/>
  <path class="cls-1" d="M12.39,56.88c6,.08,12,.16,18,.24l.96,1.2-.24,1.44-1.2,1.44c-3.89.09-17.47.79-18.72-1.2v-2.4l1.2-.72Z"/>
</svg>